<svg id="7ad5370b-5bd1-4b98-83f6-890f2f0fd371" data-name="n26-icon-savings" xmlns="http://www.w3.org/2000/svg" viewBox="0 0 200 200">
  <title>Artboard 1 copy 6</title>
  <path d="M98.77,195.62A289.78,289.78,0,0,1,39,189.3,36.26,36.26,0,0,1,11.08,161.4,284.06,284.06,0,0,1,5,102.31a313.82,313.82,0,0,1,6.43-62.85A36.2,36.2,0,0,1,39.54,11.24h0A298.16,298.16,0,0,1,100,5a301.82,301.82,0,0,1,60.94,6.28A36.18,36.18,0,0,1,189.1,39.56,314.7,314.7,0,0,1,195.62,102a288.43,288.43,0,0,1-6.19,59,36.2,36.2,0,0,1-28.23,28.07A313.9,313.9,0,0,1,98.77,195.62Zm-58-178.5A30.21,30.21,0,0,0,17.31,40.66,307.81,307.81,0,0,0,11,102.31a278.09,278.09,0,0,0,5.95,57.84,30.26,30.26,0,0,0,23.31,23.29,283.77,283.77,0,0,0,58.52,6.18A307.93,307.93,0,0,0,160,183.21a30.21,30.21,0,0,0,23.55-23.42A282.44,282.44,0,0,0,189.62,102a308.7,308.7,0,0,0-6.39-61.21,30.19,30.19,0,0,0-23.53-23.6A295.82,295.82,0,0,0,100,11a292.14,292.14,0,0,0-59.2,6.12Z" fill="#1b1b1b"/>
  <g>
    <path d="M106.6,44.89c1.49.21,3,.38,4.47.63,17.84,3,31.21,12.37,39.89,28.27C155.23,81.61,156.9,90.08,157,99c.1,6.76.37,13.52-.31,20.25-.45,4.39-1.13,8.75-1.75,13.12a2.39,2.39,0,0,1-2.72,2.29c-1.44-.25-2.19-1.44-1.95-3.1.46-3.16,1-6.3,1.39-9.47a118.48,118.48,0,0,0,.64-19.56c-.2-3.85-.19-7.74-.72-11.54a46.14,46.14,0,0,0-13-26.17A49.29,49.29,0,0,0,76,57.89a48.89,48.89,0,0,0-11.71,10.7A2.81,2.81,0,0,1,61.77,70a2.28,2.28,0,0,1-2-1.43,2.31,2.31,0,0,1,.38-2.5A55.29,55.29,0,0,1,71.46,55.22,54,54,0,0,1,98.65,45.09a2.66,2.66,0,0,0,.6-.2Z"/>
    <path d="M109.27,159c-1.94-1.19-2.22-2.33-1-4.21a79,79,0,0,0,12.8-36c.4-3.94.5-7.92.68-11.88.08-1.77.95-2.85,2.43-2.84s2.34,1.13,2.34,2.83c0,18.1-4.14,35-14.18,50.32a12.6,12.6,0,0,1-1.75,1.78Z"/>
    <path d="M136.5,105.87a96.87,96.87,0,0,1-4.78,34.52c-1.49,4.41-3.48,8.66-5.29,13a2.3,2.3,0,0,1-2.54,1.58,2.16,2.16,0,0,1-2-1.93,4.21,4.21,0,0,1,.5-2.1A92.12,92.12,0,0,0,129.24,132a104.5,104.5,0,0,0,2.74-27.5,73.85,73.85,0,0,0-.59-10.65c-2-11.29-8.69-18.72-19.43-22.39A27.6,27.6,0,0,0,91,72.64l-.61.28A2.44,2.44,0,0,1,87,71.81a2.37,2.37,0,0,1,1.37-3.19,30,30,0,0,1,10.95-3.16c13-1,23.57,3.58,31.31,14.15a30.12,30.12,0,0,1,5.82,18C136.51,100.38,136.5,103.12,136.5,105.87Z"/>
    <path d="M82,104.83A47.89,47.89,0,0,1,81.13,118c-2,8.55-7.32,14.22-15.29,17.57-1.53.65-3.12,1.18-4.7,1.7a2.43,2.43,0,0,1-3.3-1.38c-.47-1.43.29-2.68,2-3.18a31.1,31.1,0,0,0,9.62-4.51,18.27,18.27,0,0,0,7.47-13.52A105.76,105.76,0,0,0,77.34,100C76.82,88.31,85.4,79.24,95.08,76.4,107.14,72.86,120,79.22,124,90.9a36,36,0,0,1,1.24,7,2.16,2.16,0,0,1-1.42,2.3,2,2,0,0,1-2.46-.42,3.45,3.45,0,0,1-.81-2,17.63,17.63,0,0,0-4.16-10.92,19.26,19.26,0,0,0-25.22-3.49c-4.52,2.92-7.81,6.84-8.71,12.24A76.4,76.4,0,0,0,82,104.83Z"/>
    <path d="M62.93,102.67a61.23,61.23,0,0,1-.06,7.77,9.41,9.41,0,0,1-9,8,2.42,2.42,0,0,1-2.78-2.11c-.14-1.43.75-2.42,2.38-2.62,3.23-.4,4.82-2.24,4.87-5.51.08-4.82-.1-9.67.36-14.46.93-9.6,5.11-17.81,11.76-24.75A43.84,43.84,0,0,1,95.26,55.73a45,45,0,0,1,24.46,2.64A2.37,2.37,0,1,1,118,62.79,43,43,0,0,0,105.83,60a38.57,38.57,0,0,0-27,7.9A37.72,37.72,0,0,0,63.49,93.56c-.42,3-.34,6.07-.49,9.1Z"/>
    <path d="M117,104.23c0,2.26,0,4.53,0,6.79s-1.83,3.36-3.51,2.47a2.55,2.55,0,0,1-1.31-2.41c-.12-4.45-.2-8.9-.39-13.34a7.79,7.79,0,0,0-8.19-7.38c-4.06.11-7.18,3.56-7.23,8.08,0,3.93.09,7.87-.06,11.8-.59,15.71-8,26.95-22.21,33.73-1.37.66-2.79,1.21-4.2,1.77-1.65.65-3,.16-3.49-1.24s.14-2.54,1.77-3.17a41.39,41.39,0,0,0,12.12-6.89,29.79,29.79,0,0,0,10.82-20.06c.58-5.33.42-10.74.51-16.11a12.47,12.47,0,0,1,24.94-.59c.08,2.19.2,4.37.3,6.56Z"/>
    <path d="M146.75,106.3a109,109,0,0,1-5.61,38.53c-.27.81-.55,1.61-.86,2.41a2.34,2.34,0,0,1-3.08,1.58,2.4,2.4,0,0,1-1.39-3.18c1.38-4.77,3-9.49,4-14.32a110.13,110.13,0,0,0,2.22-30.09,81.6,81.6,0,0,0-.94-10.84,36.38,36.38,0,0,0-13-21.47c-.34-.29-.69-.56-1-.87a2.33,2.33,0,0,1-.34-3.28,2.25,2.25,0,0,1,3.44-.24,76.51,76.51,0,0,1,7.09,7,41.13,41.13,0,0,1,9.39,26.73C146.76,101,146.75,103.63,146.75,106.3Z"/>
    <path d="M105.93,109.38c0,7.44-.77,14.74-3.55,21.71-.58,1.44-1.22,2.86-1.91,4.26a2.38,2.38,0,1,1-4.25-2.11A48.08,48.08,0,0,0,101.14,111q0-3.9,0-7.8a10.82,10.82,0,0,1,0-1.11,2.35,2.35,0,0,1,2.45-2.34,2.4,2.4,0,0,1,2.28,2.53c0,2,0,4.08,0,6.13Q105.93,108.88,105.93,109.38Z"/>
    <path d="M48.88,100.45a55.19,55.19,0,0,1,4.91-24.78q.41-.91.88-1.79a2.36,2.36,0,1,1,4.26,2c-.89,2.19-1.9,4.34-2.68,6.57A50.31,50.31,0,0,0,53.6,98.76c0,2.6,0,5.19,0,7.79a2.37,2.37,0,1,1-4.71,0C48.87,104.72,48.88,102.9,48.88,100.45Z"/>
    <path d="M111.26,126.87c1.74,0,2.73,1.46,2.21,3.37a65.85,65.85,0,0,1-6.77,16.62c-2.21,3.71-4.79,7.21-7.24,10.79a2.32,2.32,0,0,1-2.61,1.05,2,2,0,0,1-1.72-1.94,4.27,4.27,0,0,1,.77-2.21c1.43-2.12,3.05-4.11,4.44-6.25a68.13,68.13,0,0,0,8.5-19.11C109.28,127.54,110,126.88,111.26,126.87Z"/>
    <path d="M74,109.51c-.19,3.84-.74,7.62-3.1,10.9a17.34,17.34,0,0,1-8.39,6c-2.6,1-5.28,1.72-7.94,2.5a2.33,2.33,0,0,1-3.08-1.59,2.39,2.39,0,0,1,1.8-3c3.09-1,6.24-1.91,9.24-3.14,4.33-1.77,6.29-5.31,6.58-9.86.06-.89.07-1.78.12-2.67.1-1.62,1.07-2.62,2.46-2.58s2.35,1.15,2.31,2.83C74,109.09,74,109.27,74,109.51Z"/>
    <path d="M69.31,97a32.7,32.7,0,0,1,8.85-20.78c.65-.71,1.34-1.39,2-2,1.27-1.18,2.64-1.23,3.64-.18s.85,2.52-.44,3.71a27.11,27.11,0,0,0-8.24,13.21,56.77,56.77,0,0,0-1.1,7.33,2.57,2.57,0,0,1-1.84,2.37,2.3,2.3,0,0,1-2.68-1.27,3.92,3.92,0,0,1-.23-1.18C69.28,97.75,69.31,97.34,69.31,97Z"/>
    <path d="M91.42,140.45a2.47,2.47,0,0,1,2.49,1.37,2.19,2.19,0,0,1-.45,2.67c-2.19,2.1-4.37,4.22-6.68,6.18a39.19,39.19,0,0,1-4.49,3.06,2.36,2.36,0,0,1-3.41-.67,2.32,2.32,0,0,1,.9-3.35A44.73,44.73,0,0,0,90,141.34,5,5,0,0,1,91.42,140.45Z"/>
  </g>
</svg>
